Coordinates
version=1
nRows=17
nColumns=63
inDegrees=yes

Units are S.I. units (second, meters, Newtons, ...)
If the header above contains a line with 'inDegrees', this indicates whether rotational values are in degrees (yes) or radians (no).

endheader
time	pelvis_tilt	pelvis_list	pelvis_rotation	pelvis_tx	pelvis_ty	pelvis_tz	hip_flexion_r	hip_adduction_r	hip_rotation_r	knee_angle_r	knee_angle_r_beta	ankle_angle_r	subtalar_angle_r	mtp_angle_r	hip_flexion_l	hip_adduction_l	hip_rotation_l	knee_angle_l	knee_angle_l_beta	ankle_angle_l	subtalar_angle_l	mtp_angle_l	L5_S1_Flex_Ext	L5_S1_Lat_Bending	L5_S1_axial_rotation	L4_L5_Flex_Ext	L4_L5_Lat_Bending	L4_L5_axial_rotation	L3_L4_Flex_Ext	L3_L4_Lat_Bending	L3_L4_axial_rotation	L2_L3_Flex_Ext	L2_L3_Lat_Bending	L2_L3_axial_rotation	L1_L2_Flex_Ext	L1_L2_Lat_Bending	L1_L2_axial_rotation	L1_T12_Flex_Ext	L1_T12_Lat_Bending	L1_T12_axial_rotation	Abs_r3	Abs_r2	Abs_r1	Abs_t1	Abs_t2	neck_flexion	neck_bending	neck_rotation	arm_flex_r	arm_add_r	arm_rot_r	elbow_flex_r	pro_sup_r	wrist_flex_r	wrist_dev_r	arm_flex_l	arm_add_l	arm_rot_l	elbow_flex_l	pro_sup_l	wrist_flex_l	wrist_dev_l
1.509091	-0.472935	-3.457040	97.187025	0.183320	0.486712	1.004408	5.445323	0.445268	-5.872527	5.010440	0.087449	31.154950	6.861044	0.000000	7.058625	0.757537	12.844030	7.622054	0.133030	26.774363	-11.471820	0.000000	0.010085	-0.150491	-0.530122	0.018729	-0.200153	-0.563255	0.016569	-0.365903	-0.563255	0.011526	-0.365903	-0.463857	0.009365	-0.306881	-0.430724	0.005763	-0.233110	-0.397591	0.072038	-1.702381	-2.948379	0.000000	0.000000	19.523976	3.029874	7.458386	13.904822	-20.317236	37.070262	41.994458	82.604905	-8.531935	-2.689724	6.435926	-19.508364	5.663355	52.639480	94.540324	-10.253641	4.553188
1.527273	-0.343795	-3.703043	97.404808	0.182637	0.484631	1.005101	5.807884	0.479730	-6.202452	5.209063	0.090915	31.394201	6.919646	0.000000	7.360297	0.714854	13.880275	7.613697	0.132884	27.037518	-12.085891	0.000000	0.003986	-0.141544	-0.493292	0.007402	-0.188254	-0.524123	0.006548	-0.344151	-0.524123	0.004556	-0.344151	-0.431631	0.003701	-0.288637	-0.400800	0.002278	-0.219252	-0.369969	0.028471	-1.601176	-2.743545	0.000000	0.000000	19.947473	2.827766	6.853539	14.691330	-19.146018	46.475058	36.431462	77.236876	-8.842533	-3.700768	7.867291	-18.759369	12.109384	46.783183	91.761554	-10.795921	5.006624
1.545455	-0.219330	-3.983112	97.454302	0.182155	0.482384	1.005769	6.259447	0.508655	-6.552580	5.503784	0.096059	31.726321	7.185662	0.000000	7.684113	0.667353	14.792271	7.602625	0.132691	27.303929	-12.779590	0.000000	-0.000690	-0.130721	-0.434398	-0.001281	-0.173859	-0.461548	-0.001133	-0.317835	-0.461548	-0.000788	-0.317835	-0.380098	-0.000641	-0.266566	-0.352948	-0.000394	-0.202487	-0.325798	-0.004927	-1.478741	-2.415990	0.000000	0.000000	20.485979	2.697712	6.395517	15.455482	-17.973058	57.193125	31.150444	70.573963	-9.006709	-4.579826	9.254679	-17.984997	20.984856	40.864076	87.140102	-11.247360	5.089654
1.563636	-0.116948	-4.289575	97.346629	0.181844	0.480009	1.006464	6.796582	0.509806	-6.965297	5.903010	0.103027	32.167894	7.668940	0.000000	8.041854	0.631633	15.527574	7.625432	0.133089	27.559667	-13.467081	0.000000	-0.005976	-0.119503	-0.355051	-0.011097	-0.158939	-0.377241	-0.009817	-0.290560	-0.377241	-0.006830	-0.290560	-0.310669	-0.005549	-0.243691	-0.288479	-0.003414	-0.185110	-0.266288	-0.042683	-1.351844	-1.974684	0.000000	0.000000	21.162358	2.611839	6.097081	16.154343	-16.855647	68.426104	26.325216	63.012714	-8.996006	-5.213751	10.542826	-17.183130	32.172204	35.054743	81.192075	-11.634600	4.937775
1.581818	-0.031327	-4.614690	97.063848	0.181779	0.477536	1.007135	7.394007	0.498755	-7.388257	6.368700	0.111155	32.707004	8.377277	0.000000	8.403386	0.594991	16.056398	7.640637	0.133354	27.797463	-14.163611	0.000000	-0.010710	-0.107494	-0.256387	-0.019889	-0.142967	-0.272412	-0.017595	-0.261360	-0.272412	-0.012240	-0.261360	-0.224339	-0.009945	-0.219201	-0.208315	-0.006120	-0.166508	-0.192291	-0.076499	-1.215990	-1.425950	0.000000	0.000000	21.992175	2.599578	6.018434	16.734818	-15.834363	79.789628	22.095252	54.696777	-8.760664	-5.516213	11.667338	-16.398113	45.160618	29.550521	74.068359	-11.968833	4.610580
1.600000	0.032357	-4.931649	96.705619	0.181811	0.475090	1.007839	8.008840	0.469453	-7.838492	6.879835	0.120076	33.292124	9.187226	0.000000	8.772788	0.572174	16.422106	7.694504	0.134294	27.956706	-14.855447	0.000000	-0.018204	-0.094794	-0.161848	-0.033806	-0.126076	-0.171964	-0.029907	-0.230482	-0.171964	-0.020805	-0.230482	-0.141617	-0.016904	-0.193304	-0.131502	-0.010402	-0.146836	-0.121386	-0.130028	-1.072327	-0.900152	0.000000	0.000000	22.931073	2.587745	6.171759	17.171634	-14.934207	90.807649	18.464259	46.243373	-8.329297	-5.633843	12.573364	-15.600958	59.285447	24.452984	66.525549	-12.243741	4.097316
1.618182	0.067649	-5.241568	96.287690	0.181953	0.472716	1.008587	8.635270	0.414248	-8.303838	7.420308	0.129509	33.916560	10.089100	0.000000	9.159594	0.566460	16.562321	7.800110	0.136138	28.085541	-15.419183	0.000000	-0.025993	-0.083137	-0.070039	-0.048271	-0.110573	-0.074416	-0.042704	-0.202140	-0.074416	-0.029707	-0.202140	-0.061284	-0.024137	-0.169534	-0.056906	-0.014852	-0.128780	-0.052529	-0.185665	-0.940467	-0.389534	0.000000	0.000000	23.904624	2.582401	6.532111	17.416887	-14.159171	101.240473	15.434507	37.805789	-7.648469	-5.602403	13.260279	-14.811951	74.380193	19.830293	58.520109	-12.473025	3.561210
1.636364	0.086942	-5.536720	95.858988	0.182147	0.470482	1.009406	9.250756	0.347558	-8.777730	7.958217	0.138897	34.537999	11.021120	0.000000	9.564578	0.568301	16.490205	7.962860	0.138978	28.189369	-15.822674	0.000000	-0.034311	-0.072119	0.012388	-0.063719	-0.095918	0.013162	-0.056370	-0.175349	0.013162	-0.039214	-0.175349	0.010839	-0.031861	-0.147064	0.010065	-0.019605	-0.111712	0.009291	-0.245082	-0.815819	0.068896	0.000000	0.000000	24.854943	2.545416	7.011488	17.464699	-13.506910	111.046923	12.920548	29.563529	-6.747514	-5.638545	13.745228	-14.043658	89.872102	15.739874	50.218113	-12.747081	2.991896
1.654545	0.086000	-5.810385	95.450417	0.182375	0.468452	1.010310	9.839297	0.266087	-9.248417	8.475955	0.147933	35.134687	11.934502	0.000000	9.980767	0.584323	16.216888	8.176561	0.142708	28.269679	-16.048353	0.000000	-0.043590	-0.063666	0.087422	-0.080950	-0.084675	0.092886	-0.071613	-0.154797	0.092886	-0.049818	-0.154797	0.076494	-0.040477	-0.129827	0.071030	-0.024907	-0.098618	0.065566	-0.311356	-0.720200	0.486213	0.000000	0.000000	25.704780	2.491354	7.519601	17.325111	-12.990482	119.534459	10.939566	21.975498	-5.710976	-5.865217	14.086150	-13.318133	105.384976	12.182833	41.910296	-13.111953	2.352122
1.672727	0.069312	-6.062475	95.094933	0.182583	0.466668	1.011310	10.393414	0.169471	-9.724329	8.962830	0.156431	35.681557	12.803857	0.000000	10.409510	0.616659	15.784750	8.436337	0.147242	28.322220	-16.107245	0.000000	-0.053765	-0.058291	0.151587	-0.099847	-0.077527	0.161061	-0.088331	-0.141729	0.161061	-0.061448	-0.141729	0.132639	-0.049926	-0.118867	0.123164	-0.030721	-0.090293	0.113690	-0.384039	-0.659402	0.843081	0.000000	0.000000	26.408495	2.397430	7.961203	17.033160	-12.577366	126.901751	9.373338	15.136328	-4.580042	-6.278591	14.317102	-12.644484	120.460115	9.143860	33.806995	-13.582020	1.640891
1.690909	0.039442	-6.298184	94.812164	0.182736	0.465158	1.012401	10.912323	0.056360	-10.203037	9.412387	0.164277	36.159023	13.608918	0.000000	10.849831	0.668032	15.239115	8.726115	0.152299	28.334316	-16.024249	0.000000	-0.063827	-0.056597	0.202894	-0.118533	-0.075274	0.215575	-0.104861	-0.137611	0.215575	-0.072948	-0.137611	0.177532	-0.059270	-0.115413	0.164851	-0.036471	-0.087669	0.152170	-0.455909	-0.640240	1.128435	0.000000	0.000000	26.946141	2.260541	8.266003	16.628268	-12.236553	133.276785	8.108447	9.206397	-3.436815	-6.786294	14.464458	-12.026787	134.660080	6.589445	26.143001	-14.150085	0.848694
1.709091	-0.002041	-6.525322	94.607795	0.182797	0.463929	1.013542	11.400053	-0.074766	-10.682017	9.822787	0.171440	36.566977	14.307629	0.000000	11.300346	0.738870	14.569278	9.027485	0.157559	28.322080	-15.774718	0.000000	-0.071994	-0.058463	0.241906	-0.133701	-0.077756	0.257025	-0.118279	-0.142147	0.257025	-0.082282	-0.142147	0.211668	-0.066854	-0.119218	0.196548	-0.041138	-0.090559	0.181429	-0.514248	-0.661346	1.345407	0.000000	0.000000	27.314611	2.112159	8.465195	16.124449	-11.928012	138.689454	7.081609	4.478725	-2.366863	-7.184925	14.534810	-11.451960	147.462347	4.502057	19.146225	-14.742979	0.006328
1.727273	-0.056587	-6.744390	94.459878	0.182807	0.463007	1.014656	11.852506	-0.220390	-11.135070	10.189110	0.177834	36.895344	14.918472	0.000000	11.738362	0.827186	13.907963	9.313043	0.162543	28.259816	-15.481730	0.000000	-0.076714	-0.064589	0.268953	-0.142465	-0.085904	0.285763	-0.126033	-0.157042	0.285763	-0.087676	-0.157042	0.235334	-0.071237	-0.131710	0.218525	-0.043834	-0.100049	0.201715	-0.547960	-0.730645	1.495838	0.000000	0.000000	27.555098	1.902655	8.477873	15.635532	-11.673072	143.573167	6.251673	0.890137	-1.635761	-7.447879	14.555042	-10.978507	158.428618	2.837165	13.013552	-15.392853	-0.992616
1.745455	-0.126619	-6.956961	94.378167	0.182746	0.462404	1.015689	12.263774	-0.386823	-11.596670	10.504349	0.183335	37.151878	15.460042	0.000000	12.142715	0.938654	13.321011	9.543091	0.166558	28.124951	-15.213013	0.000000	-0.077127	-0.075409	0.284575	-0.143232	-0.100294	0.302361	-0.126712	-0.183350	0.302361	-0.088148	-0.183350	0.249003	-0.071620	-0.153774	0.231217	-0.044070	-0.116809	0.213431	-0.550909	-0.853043	1.582721	0.000000	0.000000	27.688544	1.723166	8.342014	15.197985	-11.485246	147.701773	5.630597	-1.317343	-1.346079	-7.576519	14.543844	-10.618636	167.398084	1.611353	7.958533	-16.167023	-1.978608
1.763636	-0.213790	-7.166622	94.344231	0.182656	0.462108	1.016606	12.636974	-0.567630	-12.016731	10.765149	0.187887	37.325011	15.898179	0.000000	12.509492	1.067269	12.812958	9.710890	0.169487	27.951408	-14.947207	0.000000	-0.072252	-0.091062	0.286938	-0.134179	-0.121113	0.304871	-0.118703	-0.221409	0.304871	-0.082577	-0.221409	0.251070	-0.067093	-0.185694	0.233137	-0.041285	-0.141056	0.215203	-0.516089	-1.030116	1.595860	0.000000	0.000000	27.756004	1.565799	8.070823	14.878118	-11.359127	151.151177	5.212572	-2.110767	-1.605264	-7.483791	14.505232	-10.406045	173.824329	0.811149	4.243396	-16.892310	-2.936866
1.781818	-0.315942	-7.373159	94.357769	0.182570	0.462081	1.017373	12.967117	-0.753805	-12.347696	10.963936	0.191357	37.405774	16.177420	0.000000	12.833284	1.205404	12.381466	9.810338	0.171223	27.779647	-14.646358	0.000000	-0.062195	-0.111783	0.275965	-0.115502	-0.148671	0.293213	-0.102180	-0.271789	0.293213	-0.071082	-0.271789	0.241470	-0.057754	-0.227948	0.224222	-0.035538	-0.173152	0.206974	-0.444250	-1.264510	1.534836	0.000000	0.000000	27.805359	1.466901	7.679777	14.649193	-11.283366	153.626610	5.024976	-1.097775	-2.543325	-7.081999	14.459354	-10.370058	177.411788	0.425824	2.150463	-17.485812	-3.842306
1.800000	-0.433953	-7.562027	94.408753	0.182512	0.462317	1.017977	13.239327	-0.940210	-12.578111	11.101321	0.193755	37.394819	16.301084	0.000000	13.090411	1.349114	12.055072	9.830596	0.171576	27.628614	-14.333172	0.000000	-0.048334	-0.137850	0.250634	-0.089761	-0.183341	0.266298	-0.079408	-0.335169	0.266298	-0.055241	-0.335169	0.219305	-0.044883	-0.281104	0.203640	-0.027618	-0.213530	0.187975	-0.345245	-1.559388	1.393950	0.000000	0.000000	27.840141	1.448717	7.166809	14.701535	-11.255040	156.076238	4.937820	0.479405	-4.332029	-6.696751	14.400513	-10.529630	177.804963	0.445810	1.850135	-17.870205	-4.788008
